<mxfile host="app.diagrams.net" modified="2023-09-22T04:43:04.036Z" agent="Mozilla/5.0 (X11; Linux x86_64) AppleWebKit/537.36 (KHTML, like Gecko) Chrome/117.0.0.0 Safari/537.36" etag="Xcr8UBxFeb1fipomxiJd" version="21.8.0" type="device">
  <diagram name="Page-1" id="e7e014a7-5840-1c2e-5031-d8a46d1fe8dd">
    <mxGraphModel dx="1518" dy="735" grid="1" gridSize="10" guides="1" tooltips="1" connect="1" arrows="1" fold="1" page="1" pageScale="1" pageWidth="1169" pageHeight="826" background="none" math="0" shadow="0">
      <root>
        <mxCell id="0" />
        <mxCell id="1" parent="0" />
        <mxCell id="2" value="User" style="swimlane;whiteSpace=wrap" parent="1" vertex="1">
          <mxGeometry x="164.5" y="128" width="280" height="652" as="geometry" />
        </mxCell>
        <mxCell id="YMPhgvGkUeL-KJUxrrO--41" value="" style="ellipse;html=1;shape=startState;fillColor=#000000;strokeColor=#ff0000;" parent="2" vertex="1">
          <mxGeometry x="25.5" y="42" width="30" height="30" as="geometry" />
        </mxCell>
        <mxCell id="YMPhgvGkUeL-KJUxrrO--42" value="" style="edgeStyle=orthogonalEdgeStyle;html=1;verticalAlign=bottom;endArrow=open;endSize=8;strokeColor=#ff0000;rounded=0;exitX=1;exitY=0.5;exitDx=0;exitDy=0;" parent="2" source="YMPhgvGkUeL-KJUxrrO--41" edge="1">
          <mxGeometry relative="1" as="geometry">
            <mxPoint x="139.5" y="102" as="targetPoint" />
          </mxGeometry>
        </mxCell>
        <mxCell id="YMPhgvGkUeL-KJUxrrO--43" value="Enter book to search" style="rounded=1;whiteSpace=wrap;html=1;" parent="2" vertex="1">
          <mxGeometry x="80" y="192" width="120" height="60" as="geometry" />
        </mxCell>
        <mxCell id="YMPhgvGkUeL-KJUxrrO--58" style="edgeStyle=orthogonalEdgeStyle;rounded=0;orthogonalLoop=1;jettySize=auto;html=1;entryX=0.5;entryY=0;entryDx=0;entryDy=0;" parent="2" source="YMPhgvGkUeL-KJUxrrO--57" target="YMPhgvGkUeL-KJUxrrO--43" edge="1">
          <mxGeometry relative="1" as="geometry" />
        </mxCell>
        <mxCell id="YMPhgvGkUeL-KJUxrrO--57" value="Open Search Page" style="rounded=1;whiteSpace=wrap;html=1;" parent="2" vertex="1">
          <mxGeometry x="80" y="102" width="120" height="60" as="geometry" />
        </mxCell>
        <mxCell id="fmueiyVCB3gaN5nBj4RR-11" value="No" style="edgeStyle=orthogonalEdgeStyle;rounded=0;orthogonalLoop=1;jettySize=auto;html=1;entryX=0.5;entryY=0;entryDx=0;entryDy=0;" edge="1" parent="2" source="fmueiyVCB3gaN5nBj4RR-8" target="fmueiyVCB3gaN5nBj4RR-10">
          <mxGeometry relative="1" as="geometry" />
        </mxCell>
        <mxCell id="fmueiyVCB3gaN5nBj4RR-8" value="Found book" style="rhombus;whiteSpace=wrap;html=1;" vertex="1" parent="2">
          <mxGeometry x="100.5" y="285" width="80" height="80" as="geometry" />
        </mxCell>
        <mxCell id="fmueiyVCB3gaN5nBj4RR-12" value="Yes" style="edgeStyle=orthogonalEdgeStyle;rounded=0;orthogonalLoop=1;jettySize=auto;html=1;entryX=0;entryY=0.5;entryDx=0;entryDy=0;" edge="1" parent="2" source="fmueiyVCB3gaN5nBj4RR-10" target="YMPhgvGkUeL-KJUxrrO--43">
          <mxGeometry relative="1" as="geometry">
            <Array as="points">
              <mxPoint x="56" y="448" />
              <mxPoint x="56" y="222" />
            </Array>
          </mxGeometry>
        </mxCell>
        <mxCell id="fmueiyVCB3gaN5nBj4RR-10" value="Try different search keywords" style="rhombus;whiteSpace=wrap;html=1;" vertex="1" parent="2">
          <mxGeometry x="75.5" y="402" width="130" height="92" as="geometry" />
        </mxCell>
        <mxCell id="fmueiyVCB3gaN5nBj4RR-19" value="Yes" style="text;html=1;strokeColor=none;fillColor=none;align=center;verticalAlign=middle;whiteSpace=wrap;rounded=0;" vertex="1" parent="2">
          <mxGeometry x="165.5" y="322" width="60" height="30" as="geometry" />
        </mxCell>
        <mxCell id="fmueiyVCB3gaN5nBj4RR-22" value="No" style="text;html=1;strokeColor=none;fillColor=none;align=center;verticalAlign=middle;whiteSpace=wrap;rounded=0;" vertex="1" parent="2">
          <mxGeometry x="185.5" y="422" width="60" height="30" as="geometry" />
        </mxCell>
        <mxCell id="fmueiyVCB3gaN5nBj4RR-23" value="Fill Form" style="rounded=1;whiteSpace=wrap;html=1;" vertex="1" parent="2">
          <mxGeometry x="80.5" y="542" width="120" height="60" as="geometry" />
        </mxCell>
        <mxCell id="3" value="Application" style="swimlane;whiteSpace=wrap" parent="1" vertex="1">
          <mxGeometry x="444.5" y="128" width="280" height="652" as="geometry" />
        </mxCell>
        <mxCell id="fmueiyVCB3gaN5nBj4RR-6" value="Display Search Results" style="rounded=1;whiteSpace=wrap;html=1;" vertex="1" parent="3">
          <mxGeometry x="80.5" y="102" width="120" height="60" as="geometry" />
        </mxCell>
        <mxCell id="fmueiyVCB3gaN5nBj4RR-18" style="edgeStyle=orthogonalEdgeStyle;rounded=0;orthogonalLoop=1;jettySize=auto;html=1;entryX=0.5;entryY=0;entryDx=0;entryDy=0;" edge="1" parent="3" source="fmueiyVCB3gaN5nBj4RR-14" target="fmueiyVCB3gaN5nBj4RR-17">
          <mxGeometry relative="1" as="geometry" />
        </mxCell>
        <mxCell id="fmueiyVCB3gaN5nBj4RR-14" value="Display Availability Results" style="rounded=1;whiteSpace=wrap;html=1;" vertex="1" parent="3">
          <mxGeometry x="85.5" y="285" width="120" height="60" as="geometry" />
        </mxCell>
        <mxCell id="fmueiyVCB3gaN5nBj4RR-17" value="" style="ellipse;html=1;shape=endState;fillColor=#000000;strokeColor=#ff0000;" vertex="1" parent="3">
          <mxGeometry x="130.5" y="392" width="30" height="30" as="geometry" />
        </mxCell>
        <mxCell id="fmueiyVCB3gaN5nBj4RR-20" value="Display Request Form" style="rounded=1;whiteSpace=wrap;html=1;" vertex="1" parent="3">
          <mxGeometry x="85.5" y="482" width="120" height="60" as="geometry" />
        </mxCell>
        <mxCell id="4" value="Database" style="swimlane;whiteSpace=wrap" parent="1" vertex="1">
          <mxGeometry x="724.5" y="128" width="280" height="652" as="geometry" />
        </mxCell>
        <mxCell id="fmueiyVCB3gaN5nBj4RR-4" value="Get search results" style="rounded=1;whiteSpace=wrap;html=1;" vertex="1" parent="4">
          <mxGeometry x="80.5" y="52" width="120" height="60" as="geometry" />
        </mxCell>
        <mxCell id="fmueiyVCB3gaN5nBj4RR-13" value="Check Availability" style="rounded=1;whiteSpace=wrap;html=1;" vertex="1" parent="4">
          <mxGeometry x="95.5" y="252" width="120" height="60" as="geometry" />
        </mxCell>
        <mxCell id="fmueiyVCB3gaN5nBj4RR-28" style="edgeStyle=orthogonalEdgeStyle;rounded=0;orthogonalLoop=1;jettySize=auto;html=1;entryX=0.5;entryY=0;entryDx=0;entryDy=0;" edge="1" parent="4" source="fmueiyVCB3gaN5nBj4RR-25" target="fmueiyVCB3gaN5nBj4RR-26">
          <mxGeometry relative="1" as="geometry" />
        </mxCell>
        <mxCell id="fmueiyVCB3gaN5nBj4RR-25" value="Add book request" style="rounded=1;whiteSpace=wrap;html=1;" vertex="1" parent="4">
          <mxGeometry x="95.5" y="482" width="120" height="60" as="geometry" />
        </mxCell>
        <mxCell id="fmueiyVCB3gaN5nBj4RR-26" value="" style="ellipse;html=1;shape=endState;fillColor=#000000;strokeColor=#ff0000;" vertex="1" parent="4">
          <mxGeometry x="140.5" y="582" width="30" height="30" as="geometry" />
        </mxCell>
        <mxCell id="fmueiyVCB3gaN5nBj4RR-5" style="edgeStyle=orthogonalEdgeStyle;rounded=0;orthogonalLoop=1;jettySize=auto;html=1;exitX=1;exitY=0.25;exitDx=0;exitDy=0;entryX=0;entryY=0.25;entryDx=0;entryDy=0;" edge="1" parent="1" source="YMPhgvGkUeL-KJUxrrO--43" target="fmueiyVCB3gaN5nBj4RR-4">
          <mxGeometry relative="1" as="geometry">
            <Array as="points">
              <mxPoint x="410" y="335" />
              <mxPoint x="410" y="195" />
            </Array>
          </mxGeometry>
        </mxCell>
        <mxCell id="fmueiyVCB3gaN5nBj4RR-7" style="edgeStyle=orthogonalEdgeStyle;rounded=0;orthogonalLoop=1;jettySize=auto;html=1;exitX=0;exitY=0.75;exitDx=0;exitDy=0;entryX=1;entryY=0.25;entryDx=0;entryDy=0;" edge="1" parent="1" source="fmueiyVCB3gaN5nBj4RR-4" target="fmueiyVCB3gaN5nBj4RR-6">
          <mxGeometry relative="1" as="geometry">
            <Array as="points">
              <mxPoint x="750" y="225" />
              <mxPoint x="750" y="245" />
            </Array>
          </mxGeometry>
        </mxCell>
        <mxCell id="fmueiyVCB3gaN5nBj4RR-9" style="edgeStyle=orthogonalEdgeStyle;rounded=0;orthogonalLoop=1;jettySize=auto;html=1;entryX=1;entryY=0;entryDx=0;entryDy=0;" edge="1" parent="1" source="fmueiyVCB3gaN5nBj4RR-6" target="fmueiyVCB3gaN5nBj4RR-8">
          <mxGeometry relative="1" as="geometry">
            <Array as="points">
              <mxPoint x="430" y="260" />
              <mxPoint x="430" y="433" />
            </Array>
          </mxGeometry>
        </mxCell>
        <mxCell id="fmueiyVCB3gaN5nBj4RR-15" value="" style="edgeStyle=orthogonalEdgeStyle;rounded=0;orthogonalLoop=1;jettySize=auto;html=1;exitX=1;exitY=0.5;exitDx=0;exitDy=0;entryX=-0.023;entryY=0.377;entryDx=0;entryDy=0;entryPerimeter=0;" edge="1" parent="1" source="fmueiyVCB3gaN5nBj4RR-8" target="fmueiyVCB3gaN5nBj4RR-13">
          <mxGeometry relative="1" as="geometry">
            <Array as="points">
              <mxPoint x="480" y="453" />
              <mxPoint x="480" y="403" />
            </Array>
          </mxGeometry>
        </mxCell>
        <mxCell id="fmueiyVCB3gaN5nBj4RR-16" style="edgeStyle=orthogonalEdgeStyle;rounded=0;orthogonalLoop=1;jettySize=auto;html=1;exitX=0;exitY=0.75;exitDx=0;exitDy=0;entryX=1;entryY=0.5;entryDx=0;entryDy=0;" edge="1" parent="1" source="fmueiyVCB3gaN5nBj4RR-13" target="fmueiyVCB3gaN5nBj4RR-14">
          <mxGeometry relative="1" as="geometry" />
        </mxCell>
        <mxCell id="fmueiyVCB3gaN5nBj4RR-21" style="edgeStyle=orthogonalEdgeStyle;rounded=0;orthogonalLoop=1;jettySize=auto;html=1;entryX=0;entryY=0.25;entryDx=0;entryDy=0;" edge="1" parent="1" source="fmueiyVCB3gaN5nBj4RR-10" target="fmueiyVCB3gaN5nBj4RR-20">
          <mxGeometry relative="1" as="geometry">
            <Array as="points">
              <mxPoint x="480" y="576" />
              <mxPoint x="480" y="625" />
            </Array>
          </mxGeometry>
        </mxCell>
        <mxCell id="fmueiyVCB3gaN5nBj4RR-24" style="edgeStyle=orthogonalEdgeStyle;rounded=0;orthogonalLoop=1;jettySize=auto;html=1;exitX=0;exitY=0.75;exitDx=0;exitDy=0;entryX=1;entryY=0.25;entryDx=0;entryDy=0;" edge="1" parent="1" source="fmueiyVCB3gaN5nBj4RR-20" target="fmueiyVCB3gaN5nBj4RR-23">
          <mxGeometry relative="1" as="geometry">
            <Array as="points">
              <mxPoint x="480" y="655" />
              <mxPoint x="480" y="685" />
            </Array>
          </mxGeometry>
        </mxCell>
        <mxCell id="fmueiyVCB3gaN5nBj4RR-27" style="edgeStyle=orthogonalEdgeStyle;rounded=0;orthogonalLoop=1;jettySize=auto;html=1;exitX=1;exitY=0.75;exitDx=0;exitDy=0;entryX=-0.005;entryY=0.403;entryDx=0;entryDy=0;entryPerimeter=0;" edge="1" parent="1" source="fmueiyVCB3gaN5nBj4RR-23" target="fmueiyVCB3gaN5nBj4RR-25">
          <mxGeometry relative="1" as="geometry">
            <Array as="points">
              <mxPoint x="690" y="715" />
              <mxPoint x="690" y="634" />
            </Array>
          </mxGeometry>
        </mxCell>
      </root>
    </mxGraphModel>
  </diagram>
</mxfile>
